<svg width="1280" height="228" viewBox="0 0 1280 228" fill="none" xmlns="http://www.w3.org/2000/svg">
<path d="M0 96L71 3L142 43L213 46L284 48L356 27L427 78L498 45L569 5L640 88L711 0L782 63H853L924 11L996 81L1067 8L1138 30L1209 32L1280 64V238H1209H1138H1067H996H924H853H782H711H640H569H498H427H356H284H213H142H71H0V96Z" fill="#146EF5"/>
<path d="M0 47L71 56L142 72L213 80L284 45L356 37L427 102L498 95L569 56L640 93L711 82L782 58L853 88L924 99L996 100L1067 50L1138 97L1209 38L1280 112V238H1209H1138H1067H996H924H853H782H711H640H569H498H427H356H284H213H142H71H0V47Z" fill="#2560D1"/>
<path d="M0 114L71 101L142 85L213 95L284 66L356 104L427 100L498 104L569 92L640 115L711 72L782 87L853 112L924 94L996 102L1067 54L1138 72L1209 79L1280 112V238H1209H1138H1067H996H924H853H782H711H640H569H498H427H356H284H213H142H71H0V114Z" fill="#2C53AF"/>
<path d="M0 137L71 95L142 115L213 150L284 94L356 90L427 134L498 86L569 118L640 128L711 127L782 112L853 113L924 101L996 110L1067 82L1138 126L1209 119L1280 138V238H1209H1138H1067H996H924H853H782H711H640H569H498H427H356H284H213H142H71H0V137Z" fill="#2E468D"/>
<path d="M0 110L71 133L142 169L213 131L284 158L356 146L427 134L498 161L569 127L640 163L711 146L782 135L853 138L924 111L996 119L1067 134L1138 126L1209 168L1280 113V238H1209H1138H1067H996H924H853H782H711H640H569H498H427H356H284H213H142H71H0V110Z" fill="#2C3A6D"/>
<path d="M0 174L71 185L142 159L213 184L284 142L356 147L427 153L498 187L569 137L640 161L711 174L782 143L853 178L924 135L996 146L1067 176L1138 138L1209 174L1280 176V238H1209H1138H1067H996H924H853H782H711H640H569H498H427H356H284H213H142H71H0V174Z" fill="#272E4E"/>
<path d="M0 188L71 185L142 187L213 189L284 194L356 201L427 198L498 187L569 182L640 185L711 202L782 187L853 173L924 194L996 174L1067 162L1138 175L1209 162L1280 204V238H1209H1138H1067H996H924H853H782H711H640H569H498H427H356H284H213H142H71H0V188Z" fill="#202232"/>
<path d="M0 219L71 218L142 210L213 219L284 220L356 203L427 216L498 218L569 188L640 212L711 211L782 208L853 214L924 193L996 222L1067 204L1138 207H1209L1280 206V238H1209H1138H1067H996H924H853H782H711H640H569H498H427H356H284H213H142H71H0V219Z" fill="#171717"/>
</svg>
